<mxfile host="app.diagrams.net" modified="2020-09-18T14:45:22.193Z" agent="5.0 (Windows NT 10.0; Win64; x64) AppleWebKit/537.36 (KHTML, like Gecko) Chrome/85.0.4183.102 Safari/537.36" etag="vbMLhgrhjmHf3zeAEFLa" version="13.7.3" type="github">
  <diagram name="Page-1" id="9361dd3d-8414-5efd-6122-117bd74ce7a7">
    <mxGraphModel dx="1438" dy="1348" grid="1" gridSize="10" guides="1" tooltips="1" connect="1" arrows="1" fold="1" page="0" pageScale="1.5" pageWidth="826" pageHeight="1169" background="#ffffff" math="0" shadow="0">
      <root>
        <mxCell id="0" />
        <mxCell id="1" parent="0" />
        <mxCell id="81" value="" style="edgeStyle=elbowEdgeStyle;elbow=horizontal;endArrow=none;dashed=1" parent="1" edge="1">
          <mxGeometry x="1460" y="437.8935185185186" width="100" height="100" as="geometry">
            <mxPoint x="1354.5" y="610" as="sourcePoint" />
            <mxPoint x="1354.5" y="770" as="targetPoint" />
          </mxGeometry>
        </mxCell>
        <mxCell id="56" value="" style="edgeStyle=none;endArrow=none;dashed=1" parent="1" target="57" edge="1">
          <mxGeometry x="1204.0711805555559" y="380.08680555555554" width="100" height="100" as="geometry">
            <mxPoint x="1142.5" y="512.0833333333335" as="sourcePoint" />
            <mxPoint x="1350" y="445.08680555555554" as="targetPoint" />
          </mxGeometry>
        </mxCell>
        <mxCell id="57" value="" style="fillColor=#CC4125;strokeColor=#660000" parent="1" vertex="1">
          <mxGeometry x="1137.5" y="530" width="10" height="90" as="geometry" />
        </mxCell>
        <mxCell id="58" value="" style="fillColor=#CC4125;strokeColor=#660000" parent="1" vertex="1">
          <mxGeometry x="1350" y="540" width="10" height="70" as="geometry" />
        </mxCell>
        <mxCell id="62" value="postComments()" style="edgeStyle=elbowEdgeStyle;elbow=vertical;verticalLabelPosition=top;verticalAlign=bottom" parent="1" edge="1">
          <mxGeometry x="1225" y="309.5" width="100" height="100" as="geometry">
            <mxPoint x="1147.5" y="542.5" as="sourcePoint" />
            <mxPoint x="1350" y="542.5" as="targetPoint" />
            <Array as="points" />
          </mxGeometry>
        </mxCell>
        <mxCell id="63" value="&lt;&lt;json&gt;&gt;" style="edgeStyle=elbowEdgeStyle;elbow=vertical;dashed=1;verticalLabelPosition=bottom;verticalAlign=top" parent="1" edge="1">
          <mxGeometry x="1075" y="396" width="100" height="100" as="geometry">
            <mxPoint x="1350" y="606.5" as="sourcePoint" />
            <mxPoint x="1147.5" y="606.5" as="targetPoint" />
            <Array as="points" />
          </mxGeometry>
        </mxCell>
        <mxCell id="64" value="&lt;&lt;service&gt;&gt;&#xa;:GimqService" style="shadow=1;fillColor=#A2C4C9;strokeColor=none" parent="1" vertex="1">
          <mxGeometry x="1302.5" y="60" width="105" height="50" as="geometry" />
        </mxCell>
        <mxCell id="65" value="" style="edgeStyle=none;endArrow=none;dashed=1" parent="1" source="64" target="58" edge="1">
          <mxGeometry x="1174.0711805555559" y="210" width="100" height="100" as="geometry">
            <mxPoint x="1222.5" y="115" as="sourcePoint" />
            <mxPoint x="1222.5" y="445" as="targetPoint" />
          </mxGeometry>
        </mxCell>
        <mxCell id="fgd2VfyrsfsUkZpQ4Mo0-99" value="k:Klient" style="html=1;" vertex="1" parent="1">
          <mxGeometry x="-80" y="-520" width="110" height="50" as="geometry" />
        </mxCell>
        <mxCell id="fgd2VfyrsfsUkZpQ4Mo0-101" value="" style="endArrow=none;html=1;entryX=0.5;entryY=1;entryDx=0;entryDy=0;" edge="1" parent="1" target="fgd2VfyrsfsUkZpQ4Mo0-99">
          <mxGeometry width="50" height="50" relative="1" as="geometry">
            <mxPoint x="-25" y="-240" as="sourcePoint" />
            <mxPoint x="320" y="-290" as="targetPoint" />
          </mxGeometry>
        </mxCell>
        <mxCell id="fgd2VfyrsfsUkZpQ4Mo0-102" value="1: dodajProdukt" style="text;html=1;strokeColor=none;fillColor=none;align=center;verticalAlign=middle;whiteSpace=wrap;rounded=0;" vertex="1" parent="1">
          <mxGeometry x="-150" y="-400" width="120" height="40" as="geometry" />
        </mxCell>
        <mxCell id="fgd2VfyrsfsUkZpQ4Mo0-103" value="d:DodawanieProduktu" style="html=1;" vertex="1" parent="1">
          <mxGeometry x="-90" y="-240" width="130" height="50" as="geometry" />
        </mxCell>
        <mxCell id="fgd2VfyrsfsUkZpQ4Mo0-104" value="" style="endArrow=classic;html=1;" edge="1" parent="1">
          <mxGeometry width="50" height="50" relative="1" as="geometry">
            <mxPoint x="-40" y="-430" as="sourcePoint" />
            <mxPoint x="-40" y="-340" as="targetPoint" />
          </mxGeometry>
        </mxCell>
        <mxCell id="fgd2VfyrsfsUkZpQ4Mo0-105" value="" style="endArrow=classic;html=1;" edge="1" parent="1">
          <mxGeometry width="50" height="50" relative="1" as="geometry">
            <mxPoint x="-10" y="-340" as="sourcePoint" />
            <mxPoint x="-10" y="-430" as="targetPoint" />
          </mxGeometry>
        </mxCell>
        <mxCell id="fgd2VfyrsfsUkZpQ4Mo0-106" value="1.1: nazwaProduktu&lt;br&gt;1.2: glownySkladnik&lt;br&gt;1.3: kalorieW100Gramach&lt;br&gt;1.6: dodanoProduktDoBazy" style="text;html=1;strokeColor=none;fillColor=none;align=left;verticalAlign=middle;whiteSpace=wrap;rounded=0;" vertex="1" parent="1">
          <mxGeometry x="10" y="-420" width="160" height="80" as="geometry" />
        </mxCell>
        <mxCell id="fgd2VfyrsfsUkZpQ4Mo0-108" value="s:Server" style="html=1;" vertex="1" parent="1">
          <mxGeometry x="240" y="-240" width="130" height="50" as="geometry" />
        </mxCell>
        <mxCell id="fgd2VfyrsfsUkZpQ4Mo0-109" value="1.4: dodajProduktDoBazy" style="text;html=1;strokeColor=none;fillColor=none;align=center;verticalAlign=middle;whiteSpace=wrap;rounded=0;" vertex="1" parent="1">
          <mxGeometry x="80" y="-280" width="140" height="40" as="geometry" />
        </mxCell>
        <mxCell id="fgd2VfyrsfsUkZpQ4Mo0-110" value="" style="endArrow=classic;html=1;" edge="1" parent="1">
          <mxGeometry width="50" height="50" relative="1" as="geometry">
            <mxPoint x="100" y="-230" as="sourcePoint" />
            <mxPoint x="190" y="-230" as="targetPoint" />
          </mxGeometry>
        </mxCell>
        <mxCell id="fgd2VfyrsfsUkZpQ4Mo0-111" value="" style="endArrow=none;html=1;exitX=1;exitY=0.5;exitDx=0;exitDy=0;entryX=0;entryY=0.5;entryDx=0;entryDy=0;" edge="1" parent="1" source="fgd2VfyrsfsUkZpQ4Mo0-103" target="fgd2VfyrsfsUkZpQ4Mo0-108">
          <mxGeometry width="50" height="50" relative="1" as="geometry">
            <mxPoint x="270" y="-270" as="sourcePoint" />
            <mxPoint x="320" y="-320" as="targetPoint" />
          </mxGeometry>
        </mxCell>
        <mxCell id="fgd2VfyrsfsUkZpQ4Mo0-112" value="" style="endArrow=classic;html=1;" edge="1" parent="1">
          <mxGeometry width="50" height="50" relative="1" as="geometry">
            <mxPoint x="190" y="-200" as="sourcePoint" />
            <mxPoint x="100" y="-200" as="targetPoint" />
          </mxGeometry>
        </mxCell>
        <mxCell id="fgd2VfyrsfsUkZpQ4Mo0-113" value="1.5: dodanoProduktDoBazy" style="text;html=1;strokeColor=none;fillColor=none;align=center;verticalAlign=middle;whiteSpace=wrap;rounded=0;" vertex="1" parent="1">
          <mxGeometry x="80" y="-190" width="160" height="40" as="geometry" />
        </mxCell>
      </root>
    </mxGraphModel>
  </diagram>
</mxfile>
